# Blender 4.4.3
# www.blender.org
mtllib material.mtl
o Box001
v -0.006643 -0.001454 -0.009015
v -0.006643 -0.001454 0.009015
v -0.006845 -0.001454 0.009015
v -0.006845 -0.001454 -0.009015
v -0.006845 0.001454 -0.009015
v -0.006845 0.001454 0.009015
v -0.006643 0.001454 -0.009015
v -0.006643 0.001454 0.009015
v -0.006643 -0.001454 0.009015
v -0.006643 0.001454 0.009015
v -0.007425 0.000291 0.009015
v -0.007310 -0.000873 0.009015
v -0.006845 -0.001454 0.009015
v -0.007310 0.000873 0.009015
v -0.006845 0.001454 0.009015
v -0.007425 -0.000291 0.009015
v 0.007068 0.001113 0.008738
v 0.007068 -0.001113 -0.008739
v 0.007068 0.001113 -0.008739
v 0.007068 -0.001113 0.008738
v -0.006045 0.001113 -0.008739
v 0.007068 -0.001113 -0.008739
v -0.006045 -0.001113 -0.008739
v 0.007068 0.001113 -0.008739
v -0.007425 0.000291 0.009015
v -0.007425 -0.000291 -0.009015
v -0.007425 -0.000291 0.009015
v -0.007425 0.000291 -0.009015
v -0.006845 0.001454 -0.009015
v -0.007310 0.000873 0.009015
v -0.006845 0.001454 0.009015
v -0.007310 0.000873 -0.009015
v -0.006845 -0.001454 -0.009015
v -0.007310 -0.000873 0.009015
v -0.007310 -0.000873 -0.009015
v -0.006845 -0.001454 0.009015
v -0.006502 -0.001403 0.009015
v -0.006186 -0.001403 -0.009015
v -0.006186 -0.001403 0.009015
v -0.006502 -0.001403 -0.009015
v -0.006502 0.001403 -0.009015
v -0.006186 0.001403 0.009015
v -0.006186 0.001403 -0.009015
v -0.006502 0.001403 0.009015
v -0.006502 0.001403 0.009015
v -0.006502 -0.001403 0.009015
v -0.006186 0.001403 0.009015
v -0.006186 -0.001403 0.009015
v -0.007310 0.000873 -0.009015
v -0.006643 0.001454 -0.009015
v -0.007425 0.000291 -0.009015
v -0.006643 -0.001454 -0.009015
v -0.007310 -0.000873 -0.009015
v -0.006845 -0.001454 -0.009015
v -0.007425 -0.000291 -0.009015
v -0.006845 0.001454 -0.009015
v -0.006186 0.001403 -0.009015
v -0.006186 -0.001403 -0.009015
v -0.006502 0.001403 -0.009015
v -0.006502 -0.001403 -0.009015
v -0.006045 -0.001454 0.009015
v 0.007344 -0.001454 -0.009015
v 0.007344 -0.001454 0.009015
v -0.006045 -0.001454 -0.009015
v -0.006045 0.001454 -0.009015
v 0.007344 0.001454 0.009015
v 0.007344 0.001454 -0.009015
v -0.006045 0.001454 0.009015
v 0.007068 0.001113 0.008738
v -0.006045 -0.001113 0.008738
v 0.007068 -0.001113 0.008738
v -0.006045 0.001113 0.008738
v -0.006045 -0.001113 0.009015
v -0.006045 -0.001454 0.009015
v -0.006045 0.001454 0.009015
v -0.006045 0.001113 0.009015
v -0.006045 0.001113 -0.009015
v -0.006045 0.001454 -0.009015
v -0.006045 -0.001113 -0.009015
v -0.006045 -0.001454 -0.009015
v 0.007344 0.001454 0.009015
v 0.007344 0.001113 -0.009015
v 0.007344 0.001454 -0.009015
v 0.007344 0.001113 0.009015
v 0.007344 -0.001454 0.009015
v 0.007344 -0.001454 -0.009015
v 0.007344 -0.001113 0.009015
v 0.007344 -0.001113 -0.009015
v 0.007344 0.001454 -0.009015
v 0.007344 0.001113 -0.009015
v 0.007344 -0.001454 -0.009015
v 0.007344 -0.001113 -0.009015
v 0.007344 0.001113 0.009015
v 0.007344 0.001454 0.009015
v 0.007344 -0.001454 0.009015
v 0.007344 -0.001113 0.009015
v -0.006045 0.001113 -0.008739
v -0.006045 -0.001113 -0.009015
v -0.006045 0.001113 -0.009015
v -0.006045 -0.001113 -0.008739
v 0.007068 0.001113 -0.008739
v -0.006045 0.001113 -0.008739
v -0.006045 0.001113 -0.009015
v 0.007344 0.001113 -0.009015
v 0.007344 0.001113 -0.009015
v 0.007344 0.001113 0.009015
v 0.007068 0.001113 0.008738
v 0.007068 0.001113 -0.008739
v -0.006045 0.001113 0.009015
v 0.007068 0.001113 0.008738
v 0.007344 0.001113 0.009015
v -0.006045 0.001113 0.008738
v -0.006045 -0.001113 0.008738
v -0.006045 0.001113 0.008738
v -0.006045 0.001113 0.009015
v -0.006045 -0.001113 0.009015
v 0.007068 -0.001113 0.008738
v -0.006045 -0.001113 0.008738
v -0.006045 -0.001113 0.009015
v 0.007344 -0.001113 0.009015
v 0.007344 -0.001113 0.009015
v 0.007344 -0.001113 -0.009015
v 0.007068 -0.001113 -0.008739
v 0.007068 -0.001113 0.008738
v -0.006045 -0.001113 -0.009015
v 0.007068 -0.001113 -0.008739
v 0.007344 -0.001113 -0.009015
v -0.006045 -0.001113 -0.008739
v 0.007425 -0.000460 -0.008430
v -0.000869 -0.000460 -0.004394
v 0.006175 -0.000460 -0.002823
v 0.000381 -0.000460 -0.010000
v -0.003749 -0.000029 0.010000
v 0.000556 -0.000029 0.001843
v -0.006054 -0.000029 0.004739
v 0.002861 -0.000029 0.007104
vn 0.1738 -0.9848 -0.0000
vn -0.0000 -1.0000 -0.0000
vn -0.0000 1.0000 -0.0000
vn 0.1738 0.9848 -0.0000
vn -0.0000 -0.0000 1.0000
vn 1.0000 -0.0000 -0.0000
vn -0.0000 -0.0000 -1.0000
vn -0.9953 0.0968 -0.0000
vn -0.9953 -0.0968 -0.0000
vn -0.7806 0.6250 -0.0000
vn -0.9071 0.4210 -0.0000
vn -0.7806 -0.6250 -0.0000
vn -0.9071 -0.4210 -0.0000
vn -0.1738 -0.9848 -0.0000
vn -0.1738 0.9848 -0.0000
vn -0.1739 -0.9848 -0.0000
vn 0.1739 -0.9848 -0.0000
vn -0.1739 0.9848 -0.0000
vn 0.1739 0.9848 -0.0000
vt 0.312599 0.313357
vt 0.689038 0.314199
vt 0.689058 0.320770
vt 0.312618 0.319926
vt 0.312448 0.387962
vt 0.688910 0.388796
vt 0.312392 0.394532
vt 0.688854 0.395367
vt 0.705377 0.324435
vt 0.705265 0.385190
vt 0.688971 0.360857
vt 0.691404 0.336561
vt 0.701155 0.324427
vt 0.691336 0.373013
vt 0.701043 0.385182
vt 0.688996 0.348708
vt 0.275302 0.996720
vt 0.641565 0.950087
vt 0.641565 0.996720
vt 0.275302 0.950087
vt 0.916367 0.996720
vt 0.916367 0.950088
vt 0.312553 0.347861
vt 0.312509 0.360023
vt 0.688944 0.373236
vt 0.312482 0.372402
vt 0.689023 0.336329
vt 0.312582 0.335484
vt 0.689112 0.307629
vt 0.312690 0.300191
vt 0.689126 0.301029
vt 0.312675 0.306789
vt 0.312318 0.401101
vt 0.688765 0.408537
vt 0.312303 0.407701
vt 0.688780 0.401936
vt 0.708210 0.384124
vt 0.708317 0.325512
vt 0.714814 0.384136
vt 0.714919 0.325524
vt 0.310041 0.372204
vt 0.295986 0.384316
vt 0.296313 0.323401
vt 0.310229 0.335665
vt 0.300543 0.323426
vt 0.300220 0.384338
vt 0.286414 0.383194
vt 0.286742 0.324416
vt 0.293038 0.383228
vt 0.293360 0.324456
vt 0.689199 0.294459
vt 0.313387 0.014079
vt 0.689819 0.014914
vt 0.312766 0.293623
vt 0.312229 0.414271
vt 0.688069 0.694674
vt 0.311608 0.693837
vt 0.688691 0.415107
vt 0.000500 0.950087
vt 0.000500 0.996720
vt 0.718417 0.331631
vt 0.717863 0.324457
vt 0.717746 0.385246
vt 0.717830 0.378104
vt 0.282922 0.377060
vt 0.283453 0.384255
vt 0.283654 0.330458
vt 0.283834 0.323252
vt 0.311592 0.700974
vt 0.688054 0.701810
vt 0.689835 0.007778
vt 0.313402 0.006944
vt 0.001555 0.405089
vt 0.001023 0.397893
vt 0.000708 0.315098
vt 0.000500 0.322325
vt 0.997648 0.381307
vt 0.997567 0.388450
vt 0.998944 0.302680
vt 0.999500 0.309854
vt 0.277136 0.376969
vt 0.277868 0.330367
vt 0.006410 0.391646
vt 0.282492 0.371243
vt 0.682293 0.708256
vt 0.318048 0.707458
vt 0.991940 0.375467
vt 0.717897 0.372330
vt 0.724188 0.331704
vt 0.723601 0.378177
vt 0.994149 0.316104
vt 0.718867 0.337432
vt 0.319162 0.000500
vt 0.683379 0.001294
vt 0.006175 0.328336
vt 0.283486 0.336301
vt 0.843963 0.258432
vt 0.692723 0.138057
vt 0.843963 0.138057
vt 0.692723 0.258432
vt 0.692723 0.004937
vt 0.843963 0.125312
vt 0.692723 0.125312
vt 0.843963 0.004937
s 1
usemtl DefaultMaterial
f 1/1/1 2/2/1 3/3/2
f 3/3/2 4/4/2 1/1/1
f 5/5/3 6/6/3 7/7/4
f 7/7/4 6/6/3 8/8/4
s 0
f 9/9/5 10/10/5 11/11/5
f 9/9/5 12/12/5 13/13/5
f 10/10/5 14/14/5 11/11/5
f 14/14/5 10/10/5 15/15/5
f 16/16/5 9/9/5 11/11/5
f 12/12/5 9/9/5 16/16/5
f 17/17/6 18/18/6 19/19/6
f 18/18/6 17/17/6 20/20/6
f 21/21/7 22/18/7 23/22/7
f 22/18/7 21/21/7 24/19/7
s 1
f 25/11/8 26/23/9 27/16/9
f 26/23/9 25/11/8 28/24/8
f 29/5/10 30/25/11 31/6/10
f 30/25/11 29/5/10 32/26/11
f 30/25/11 28/24/8 25/11/8
f 28/24/8 30/25/11 32/26/11
f 33/4/12 34/27/13 35/28/13
f 34/27/13 33/4/12 36/3/12
f 35/28/13 27/16/9 26/23/9
f 27/16/9 35/28/13 34/27/13
f 37/29/1 38/30/14 39/31/14
f 38/30/14 37/29/1 40/32/1
f 41/33/4 42/34/15 43/35/15
f 42/34/15 41/33/4 44/36/4
s 0
f 45/37/5 46/38/5 47/39/5
f 47/39/5 46/38/5 48/40/5
f 49/41/7 50/42/7 51/24/7
f 51/24/7 50/42/7 52/43/7
f 53/44/7 52/43/7 54/45/7
f 55/23/7 52/43/7 53/44/7
f 51/24/7 52/43/7 55/23/7
f 50/42/7 49/41/7 56/46/7
f 57/47/7 58/48/7 59/49/7
f 59/49/7 58/48/7 60/50/7
s 1
f 61/51/14 62/52/2 63/53/2
f 62/52/2 61/51/14 64/54/14
f 65/55/15 66/56/3 67/57/3
f 66/56/3 65/55/15 68/58/15
s 0
f 69/17/5 70/59/5 71/20/5
f 70/59/5 69/17/5 72/60/5
f 39/31/16 64/54/16 61/51/16
f 64/54/16 39/31/16 38/30/16
f 2/2/17 40/32/17 37/29/17
f 40/32/17 2/2/17 1/1/17
f 43/35/18 68/58/18 65/55/18
f 68/58/18 43/35/18 42/34/18
f 7/7/19 44/36/19 41/33/19
f 44/36/19 7/7/19 8/8/19
f 73/61/5 48/40/5 74/62/5
f 75/63/5 47/39/5 76/64/5
f 48/40/5 76/64/5 47/39/5
f 76/64/5 48/40/5 73/61/5
f 10/10/5 9/9/5 45/37/5
f 45/37/5 9/9/5 46/38/5
f 59/49/7 60/50/7 50/42/7
f 50/42/7 60/50/7 52/43/7
f 77/65/7 57/47/7 78/66/7
f 57/47/7 79/67/7 58/48/7
f 79/67/7 80/68/7 58/48/7
f 79/67/7 57/47/7 77/65/7
f 81/56/6 82/69/6 83/57/6
f 82/69/6 81/56/6 84/70/6
f 85/53/6 86/52/6 87/71/6
f 88/72/6 87/71/6 86/52/6
f 89/73/7 77/65/7 78/66/7
f 77/65/7 89/73/7 90/74/7
f 91/75/7 80/68/7 92/76/7
f 79/67/7 92/76/7 80/68/7
f 75/63/5 93/77/5 94/78/5
f 93/77/5 75/63/5 76/64/5
f 74/62/5 95/79/5 73/61/5
f 96/80/5 73/61/5 95/79/5
f 97/81/6 98/67/6 99/65/6
f 98/67/6 97/81/6 100/82/6
f 101/83/2 102/84/2 103/65/2
f 103/65/2 104/74/2 101/83/2
f 105/69/2 106/70/2 107/85/2
f 105/69/2 107/85/2 108/86/2
f 109/64/2 110/87/2 111/77/2
f 110/87/2 109/64/2 112/88/2
f 113/89/6 114/90/6 115/64/6
f 115/64/6 116/61/6 113/89/6
f 117/91/3 118/92/3 119/61/3
f 119/61/3 120/80/3 117/91/3
f 121/71/3 122/72/3 123/93/3
f 121/71/3 123/93/3 124/94/3
f 125/67/3 126/95/3 127/76/3
f 126/95/3 125/67/3 128/96/3
f 129/97/3 130/98/3 131/99/3
f 130/98/3 129/97/3 132/100/3
f 133/101/3 134/102/3 135/103/3
f 134/102/3 133/101/3 136/104/3
